<svg width="105" height="28" viewBox="0 0 105 28" fill="none" xmlns="http://www.w3.org/2000/svg">
<path d="M75.9285 8.63696C77.5074 9.98746 78.6445 11.8546 78.8312 13.9525C78.8493 14.2542 78.8502 14.5555 78.8474 14.8577C78.8472 14.9032 78.847 14.9487 78.8468 14.9956C78.8418 15.729 78.7883 16.4213 78.5649 17.1235C78.5492 17.1737 78.5334 17.2239 78.5173 17.2755C77.8639 19.3045 76.4395 21.0158 74.5533 22.0248C73.7143 22.4517 72.8121 22.7215 71.879 22.8378C71.879 21.6854 71.879 20.5331 71.879 19.3458C72.2152 19.22 72.5514 19.0943 72.8978 18.9648C74.1223 18.2764 74.8825 17.2866 75.2806 15.9479C75.5698 14.7087 75.3197 13.4633 74.6648 12.3854C73.9681 11.3479 72.9902 10.6424 71.7618 10.3658C70.5595 10.151 69.3695 10.3381 68.3503 11.033C67.2121 11.8794 66.4527 13.1199 66.2119 14.5204C66.1072 15.5396 66.3535 16.6133 66.976 17.441C66.8916 17.6363 66.8132 17.74 66.6375 17.8596C66.5946 17.8893 66.5517 17.919 66.5075 17.9496C66.4612 17.9808 66.4148 18.012 66.3671 18.0442C66.2691 18.1116 66.1711 18.1791 66.0731 18.2466C66.0226 18.2811 65.972 18.3156 65.92 18.3512C65.672 18.5216 65.4267 18.6957 65.1812 18.8696C64.8907 19.0749 64.599 19.2773 64.3017 19.4727C64.0087 19.3795 63.9059 19.1431 63.7684 18.8894C63.7434 18.844 63.7185 18.7987 63.6927 18.7519C62.6723 16.8572 62.4618 14.7871 63.0575 12.728C63.4024 11.618 63.9835 10.5714 64.7474 9.69497C64.7925 9.64226 64.8377 9.58955 64.8842 9.53524C67.6869 6.33859 72.6393 5.89094 75.9285 8.63696Z" fill="#3880ED"/>
<path d="M60.1765 9.56402C61.2726 10.4838 61.7812 11.7283 61.9436 13.1242C62.0843 14.8677 61.9278 16.754 60.7488 18.1399C60.7057 18.1882 60.6626 18.2365 60.6182 18.2862C60.5797 18.3306 60.5412 18.375 60.5015 18.4207C59.8053 19.172 58.8601 19.5745 57.8456 19.6325C56.5635 19.6489 55.6865 19.1904 54.7601 18.3497C54.7391 18.3288 54.7181 18.3078 54.6964 18.2862C54.6754 19.9415 54.6544 21.5967 54.6328 23.3021C53.7082 23.3021 52.7836 23.3021 51.8311 23.3021C51.8311 18.5669 51.8311 13.8316 51.8311 8.95291C52.6926 8.95291 53.5541 8.95291 54.4417 8.95291C54.4627 9.37196 54.4838 9.79101 54.5054 10.2228C54.5763 10.1376 54.6472 10.0525 54.7203 9.96482C56.1538 8.36176 58.5106 8.32276 60.1765 9.56402ZM55.4605 11.4926C55.4213 11.5284 55.3821 11.5643 55.3416 11.6012C54.6319 12.3211 54.6137 13.2855 54.6126 14.2308C54.6222 15.1536 54.7495 16.0104 55.4013 16.7143C55.8542 17.1438 56.3131 17.3684 56.9402 17.4033C57.4666 17.3855 57.9324 17.1694 58.3259 16.8259C59.1265 15.9693 59.1287 14.7362 59.0987 13.6331C59.0577 12.819 58.8219 12.0797 58.259 11.477C57.4493 10.7505 56.2544 10.7421 55.4605 11.4926Z" fill="#757679"/>
<path d="M80.4863 5.01562C81.4109 5.01562 82.3354 5.01562 83.288 5.01562C83.309 7.4461 83.3301 9.87658 83.3517 12.3807C84.0015 11.6852 84.0015 11.6852 84.6098 10.9655C84.7678 10.775 84.9339 10.5933 85.1028 10.4125C85.3789 10.1164 85.64 9.81145 85.8942 9.49628C85.9377 9.44243 85.9812 9.38857 86.026 9.33309C86.0843 9.2349 86.0843 9.2349 86.1437 9.13473C86.2622 8.9945 86.3259 8.95591 86.5083 8.91872C86.7204 8.90795 86.9293 8.90936 87.1416 8.91493C87.2189 8.91547 87.2962 8.91601 87.3758 8.91656C87.6224 8.91869 87.8688 8.92348 88.1154 8.92832C88.2827 8.93023 88.4499 8.93197 88.6172 8.93353C89.027 8.93773 89.4368 8.9441 89.8465 8.95213C89.7864 9.03333 89.726 9.11441 89.6656 9.19544C89.632 9.2406 89.5984 9.28576 89.5638 9.33229C89.4378 9.49441 89.2984 9.63563 89.1501 9.77753C88.9203 9.99812 88.7093 10.2282 88.5007 10.4684C88.3024 10.6932 88.0952 10.9096 87.8885 11.1267C87.5791 11.4533 87.2702 11.7801 86.9653 12.1109C86.886 12.1968 86.886 12.1968 86.8051 12.2845C86.667 12.4395 86.5364 12.5985 86.4081 12.7617C86.7371 13.3973 87.0916 14.0159 87.455 14.6326C87.7274 15.0957 87.9929 15.5623 88.2547 16.0315C88.5541 16.568 88.859 17.1008 89.17 17.6307C89.2257 17.7256 89.2257 17.7256 89.2825 17.8223C89.3531 17.9427 89.4239 18.0631 89.4946 18.1834C89.631 18.4156 89.7672 18.6478 89.9023 18.8807C89.9415 18.948 89.9807 19.0153 90.0212 19.0846C90.1012 19.2378 90.1012 19.2378 90.1012 19.3648C89.0926 19.3648 88.084 19.3648 87.0448 19.3648C86.9148 19.1226 86.7848 18.8803 86.6509 18.6307C86.3182 18.013 85.9783 17.4001 85.6303 16.7908C85.2655 16.1508 84.9128 15.5043 84.5615 14.8569C84.5195 14.8569 84.4775 14.8569 84.4342 14.8569C84.3183 14.9736 84.2086 15.0911 84.0999 15.214C84.0399 15.2811 83.9799 15.348 83.9198 15.4149C83.8933 15.4449 83.8667 15.4748 83.8394 15.5056C83.7338 15.6188 83.7338 15.6188 83.5343 15.7737C83.3005 16.0075 83.3046 16.2373 83.2987 16.556C83.2996 16.6634 83.2996 16.6634 83.3005 16.7731C83.2996 16.8472 83.2987 16.9214 83.2978 16.9978C83.2954 17.2339 83.2957 17.47 83.296 17.7061C83.2948 17.8665 83.2935 18.0269 83.292 18.1873C83.2884 18.5798 83.2883 18.9722 83.288 19.3648C82.3635 19.3648 81.4389 19.3648 80.4863 19.3648C80.4863 14.6296 80.4863 9.89435 80.4863 5.01562Z" fill="#757679"/>
<path d="M36.8408 9.78288C38.0349 10.8216 38.7068 12.0586 38.8251 13.6418C38.9152 15.2457 38.5205 16.6946 37.4636 17.9295C36.5414 18.937 35.3126 19.5425 33.9384 19.6256C32.3587 19.6971 30.8828 19.3003 29.656 18.2727C28.5698 17.2459 28.1492 15.8414 28.1103 14.3887C28.089 12.8186 28.4384 11.3406 29.5656 10.1769C31.4443 8.34987 34.7802 8.11615 36.8408 9.78288ZM31.6179 11.8739C31.0989 12.526 30.9737 13.3371 30.9812 14.1457C30.9817 14.2182 30.9822 14.2907 30.9827 14.3655C31.0007 15.2889 31.2202 15.9953 31.8567 16.6814C32.3241 17.122 32.8469 17.3162 33.4847 17.3387C34.1251 17.317 34.6693 17.053 35.1479 16.6338C35.7782 15.9008 35.9237 15.1168 35.9279 14.1814C35.9292 14.11 35.9306 14.0385 35.9319 13.9649C35.936 13.0871 35.7127 12.3016 35.0962 11.6576C34.6167 11.2071 34.1251 11.0072 33.4643 10.9756C32.7189 11.0096 32.1231 11.3422 31.6179 11.8739Z" fill="#757679"/>
<path d="M98.7984 9.71595C99.7878 10.5611 100.256 11.7263 100.464 12.9838C100.472 13.03 100.48 13.0761 100.488 13.1237C100.582 13.7477 100.543 14.3401 100.543 14.9838C98.2949 14.9838 96.0465 14.9838 93.73 14.9838C93.9796 16.2586 93.9796 16.2586 94.8125 17.1425C95.2604 17.4061 95.7464 17.5223 96.2631 17.4275C96.5464 17.349 96.7431 17.2557 96.9775 17.079C97.0195 17.079 97.0615 17.079 97.1048 17.079C97.2197 16.8543 97.3254 16.6257 97.4311 16.3965C97.4655 16.3222 97.4998 16.2479 97.5351 16.1713C97.5612 16.1147 97.5873 16.058 97.6142 15.9997C98.5521 16.1271 99.4843 16.2772 100.416 16.4441C100.189 17.2615 99.8068 17.8736 99.2061 18.4759C99.1732 18.5109 99.1403 18.5459 99.1063 18.582C98.1906 19.4689 96.8075 19.6476 95.5948 19.6324C94.5123 19.6008 93.5329 19.2985 92.6476 18.6664C92.6072 18.6379 92.5668 18.6094 92.5252 18.58C91.5013 17.7839 91.0394 16.4151 90.8848 15.175C90.7381 13.5493 90.9038 11.7521 91.9556 10.4325C93.6981 8.4437 96.6635 8.05137 98.7984 9.71595ZM94.2394 11.6187C93.8973 12.1647 93.7937 12.5617 93.7937 13.206C95.1175 13.206 96.4413 13.206 97.8052 13.206C97.6345 12.0554 97.6345 12.0554 96.919 11.208C95.9913 10.5925 94.9488 10.7848 94.2394 11.6187Z" fill="#757679"/>
<path d="M48.0526 9.52375C48.6538 10.0332 49.1257 10.7056 49.284 11.4913C48.997 11.5942 48.7114 11.661 48.4117 11.714C48.3661 11.7223 48.3205 11.7305 48.2734 11.7391C48.1776 11.7564 48.0818 11.7735 47.9859 11.7906C47.8391 11.8167 47.6925 11.8433 47.5458 11.87C47.4524 11.8868 47.359 11.9036 47.2656 11.9203C47.1999 11.9322 47.1999 11.9322 47.1329 11.9444C46.9554 11.9758 46.7905 11.9992 46.6097 11.9992C46.5919 11.9578 46.5741 11.9164 46.5557 11.8737C46.3515 11.4297 46.1542 11.1169 45.6949 10.9181C44.9465 10.6778 44.0603 10.7084 43.3344 11.0111C43.1278 11.1269 43.1278 11.1269 42.9802 11.3008C42.9299 11.6421 42.9299 11.6421 43.0776 11.9321C43.2815 12.1013 43.4966 12.1718 43.7458 12.2492C43.8214 12.2734 43.8214 12.2734 43.8984 12.2982C44.5212 12.4939 45.1552 12.6462 45.7895 12.7995C48.5707 13.4748 48.5707 13.4748 49.254 14.5674C49.6632 15.3398 49.7377 16.2297 49.5029 17.0706C49.1595 18.0331 48.4836 18.7333 47.5648 19.1738C46.0082 19.826 43.9677 19.8328 42.3873 19.2462C41.3318 18.7995 40.4883 18.0223 40.0512 16.9516C39.9965 16.7609 39.9586 16.5758 39.9238 16.3802C40.235 16.2855 40.5417 16.2186 40.8638 16.1713C40.9092 16.1645 40.9546 16.1576 41.0014 16.1505C41.0965 16.1362 41.1917 16.122 41.2869 16.108C41.4324 16.0865 41.5779 16.0644 41.7233 16.0424C41.8162 16.0284 41.9091 16.0145 42.002 16.0007C42.0668 15.9909 42.0668 15.9909 42.133 15.9809C42.3344 15.9514 42.5212 15.9357 42.7255 15.9357C42.7441 15.9856 42.7626 16.0354 42.7817 16.0867C42.9808 16.5954 43.1696 17.014 43.6608 17.2889C44.3987 17.6104 45.29 17.5995 46.0486 17.3484C46.3207 17.2362 46.4939 17.1208 46.6734 16.8881C46.7595 16.6304 46.7831 16.38 46.6888 16.1204C46.4595 15.7691 45.8623 15.6877 45.475 15.5994C45.3682 15.5739 45.2615 15.5485 45.1548 15.5229C45.0999 15.51 45.0449 15.4971 44.9883 15.4838C44.1967 15.2964 43.4072 15.1067 42.638 14.8405C42.5561 14.8126 42.5561 14.8126 42.4725 14.7842C41.5295 14.4431 40.8625 13.9008 40.4265 12.996C40.1962 12.3718 40.2013 11.4945 40.4305 10.871C40.8334 10.0118 41.3913 9.40573 42.2758 9.03095C43.9856 8.42886 46.555 8.39347 48.0526 9.52375Z" fill="#757679"/>
<path d="M18.3656 9.43503C19.0603 9.98095 19.3052 10.8168 19.4084 11.6577C19.4351 11.9584 19.4302 12.2598 19.4292 12.5615C19.4292 12.6353 19.4292 12.7091 19.4292 12.7851C19.4292 13.0276 19.4287 13.2701 19.4282 13.5127C19.428 13.6813 19.4279 13.85 19.4279 14.0187C19.4277 14.4164 19.4272 14.8142 19.4265 15.212C19.4258 15.6651 19.4255 16.1182 19.4251 16.5713C19.4245 17.5028 19.4233 18.4343 19.4219 19.3658C18.4974 19.3658 17.5728 19.3658 16.6202 19.3658C16.619 19.1637 16.6177 18.9615 16.6164 18.7533C16.6121 18.0837 16.6072 17.4142 16.6019 16.7447C16.5988 16.3389 16.5958 15.9332 16.5934 15.5274C16.591 15.1355 16.5881 14.7436 16.5847 14.3517C16.5835 14.2025 16.5826 14.0533 16.5818 13.9042C16.5807 13.6945 16.5789 13.4848 16.5769 13.2751C16.5767 13.2141 16.5766 13.1531 16.5765 13.0902C16.5676 12.3697 16.4915 11.7454 15.9636 11.219C15.5431 10.9557 15.1427 10.855 14.6463 10.9214C14.0414 11.0814 13.5352 11.3472 13.1818 11.8738C12.9533 12.2854 12.9002 12.7206 12.8581 13.1814C12.8527 13.2398 12.8473 13.2983 12.8417 13.3585C12.7876 13.9823 12.7774 14.6044 12.7734 15.2302C12.7722 15.3507 12.7709 15.4712 12.7696 15.5917C12.7664 15.9039 12.7639 16.2161 12.7615 16.5283C12.7584 16.9055 12.7545 17.2828 12.7508 17.66C12.7452 18.2286 12.7408 18.7972 12.7361 19.3658C11.8325 19.3658 10.929 19.3658 9.99805 19.3658C9.99805 15.9296 9.99805 12.4934 9.99805 8.95313C10.8386 8.95313 11.6791 8.95313 12.545 8.95313C12.5766 9.61313 12.5766 9.61313 12.6087 10.2865C12.6974 10.1765 12.6974 10.1765 12.7878 10.0642C14.2136 8.44481 16.6118 8.28147 18.3656 9.43503Z" fill="#757679"/>
<path d="M27.9544 5.08055C27.9291 5.53302 27.8741 5.97592 27.7953 6.42182C27.7828 6.4929 27.7828 6.4929 27.7701 6.56541C27.7082 6.90504 27.7082 6.90504 27.6361 7.04881C27.5966 7.04422 27.5571 7.03964 27.5164 7.03492C26.4868 6.88807 26.4868 6.88807 25.5348 7.17579C25.3054 7.52028 25.2965 7.87844 25.2682 8.27896C25.2511 8.50158 25.234 8.7242 25.2164 8.95357C25.8888 8.95357 26.5612 8.95357 27.254 8.95357C27.254 9.6869 27.254 10.4202 27.254 11.1758C26.5816 11.1758 25.9092 11.1758 25.2164 11.1758C25.2164 13.8786 25.2164 16.5815 25.2164 19.3663C24.3129 19.3663 23.4093 19.3663 22.4784 19.3663C22.4784 16.6634 22.4784 13.9606 22.4784 11.1758C21.9741 11.1758 21.4698 11.1758 20.9502 11.1758C20.9502 10.4425 20.9502 9.70912 20.9502 8.95357C21.4545 8.95357 21.9588 8.95357 22.4784 8.95357C22.4762 8.83023 22.474 8.70689 22.4717 8.57981C22.4703 8.45728 22.469 8.33476 22.4679 8.21223C22.4665 8.08793 22.4641 7.96364 22.4616 7.83936C22.4556 7.05159 22.5388 6.28315 23.0515 5.65198C24.321 4.43293 26.3891 4.56027 27.9544 5.08055Z" fill="#757679"/>
<path d="M4.39453 5.01562C5.36112 5.01562 6.3277 5.01562 7.32358 5.01562C7.32358 9.75086 7.32358 14.4861 7.32358 19.3648C6.35699 19.3648 5.39041 19.3648 4.39453 19.3648C4.39453 14.6296 4.39453 9.89435 4.39453 5.01562Z" fill="#757679"/>
<path d="M68.8855 18.458C69.5369 18.458 70.1883 18.458 70.8594 18.458C70.9336 19.3896 70.9303 20.3176 70.9271 21.2517C70.9267 21.4122 70.9265 21.5728 70.9262 21.7333C70.9255 22.123 70.9244 22.5127 70.9231 22.9025C70.86 22.9025 70.797 22.9025 70.7321 22.9025C70.7321 22.0225 70.7321 21.1425 70.7321 20.2358C70.1437 20.2358 69.5553 20.2358 68.9492 20.2358C68.9492 20.6339 68.9492 21.032 68.9492 21.4421C68.4659 21.4421 67.9826 21.4421 67.4846 21.4421C67.4846 21.065 67.4846 20.6878 67.4846 20.2993C67.0434 20.2993 66.6021 20.2993 66.1475 20.2993C66.1475 19.8802 66.1475 19.4612 66.1475 19.0294C66.6097 19.0294 67.072 19.0294 67.5483 19.0294C67.5483 19.3647 67.5483 19.6999 67.5483 20.0453C67.9896 20.0453 68.4308 20.0453 68.8855 20.0453C68.8855 19.5215 68.8855 18.9977 68.8855 18.458Z" fill="#EF5128"/>
<path d="M66.3496 18.8555C66.8119 18.8555 67.2742 18.8555 67.7505 18.8555C67.7505 19.1907 67.7505 19.5259 67.7505 19.8713C68.2127 19.8713 68.675 19.8713 69.1513 19.8713C69.1513 20.3323 69.1513 20.7932 69.1513 21.2682C68.668 21.2682 68.1847 21.2682 67.6868 21.2682C67.6868 20.891 67.6868 20.5139 67.6868 20.1253C67.2455 20.1253 66.8042 20.1253 66.3496 20.1253C66.3496 19.7063 66.3496 19.2872 66.3496 18.8555Z" fill="#7EBB41"/>
<path d="M66.3496 18.8555C66.8119 18.8555 67.2742 18.8555 67.7505 18.8555C67.7518 19.0178 67.7531 19.1802 67.7544 19.3475C67.755 19.3983 67.7556 19.449 67.7562 19.5012C67.7571 19.7253 67.7417 19.9063 67.6868 20.1253C67.2455 20.1253 66.8042 20.1253 66.3496 20.1253C66.3496 19.7063 66.3496 19.2872 66.3496 18.8555Z" fill="#FDB714"/>
<path d="M70.9863 19.4736C71.1124 19.4736 71.2385 19.4736 71.3684 19.4736C71.3684 20.6051 71.3684 21.7365 71.3684 22.9022C71.2423 22.9022 71.1162 22.9022 70.9863 22.9022C70.9863 21.7708 70.9863 20.6393 70.9863 19.4736Z" fill="#3880ED"/>
<path d="M71.4971 19.4102C71.6022 19.4102 71.7072 19.4102 71.8155 19.4102C71.8155 20.5416 71.8155 21.673 71.8155 22.8387C71.6894 22.8387 71.5633 22.8387 71.4334 22.8387C71.4318 22.3607 71.4307 21.8826 71.4299 21.4045C71.4296 21.2417 71.4292 21.0789 71.4286 20.9162C71.4279 20.6828 71.4275 20.4494 71.4272 20.216C71.4269 20.1427 71.4266 20.0694 71.4262 19.9939C71.4262 19.9265 71.4262 19.8592 71.4262 19.7898C71.4261 19.7301 71.4259 19.6705 71.4258 19.609C71.4334 19.4736 71.4334 19.4736 71.4971 19.4102Z" fill="#3880ED"/>
<path d="M70.9985 19.3008C71.0405 19.3008 71.0825 19.3008 71.1258 19.3008C71.1258 20.4322 71.1258 21.5636 71.1258 22.7294C71.0628 22.7294 70.9997 22.7294 70.9348 22.7294C70.9332 22.3635 70.932 21.9977 70.9313 21.6319C70.931 21.5078 70.9305 21.3836 70.93 21.2595C70.9242 19.9368 70.9242 19.9368 70.9985 19.3008Z" fill="#05ABEA"/>
</svg>
